# xmcd CD database file
#
# Track frame offsets:
#	150
#	16774
#	34445
#	53566
#	73417
#	89716
#	108027
#	127628
#	149088
#	168590
#	184746
#	206577
#	220948
#	240665
#	253866
#	272989
#	290132
#	304441
#
# Disc length: 4385 seconds
#
# Revision: 1
# Processed by: cddbd v1.5.1PL2 Copyright (c) Steve Scherf et al.
# Submitted via: CDex 1.51
#
DISCID=1f111f12
DTITLE=Sidney Bechet - Bechet's Fantasy
DYEAR=1900
DGENRE=Jazz
TTITLE0=Muskrat Rmble
TTITLE1=Quiet Please
TTITLE2=Cliff's Boogie Blues
TTITLE3=Jeepers Creepers
TTITLE4=High Society
TTITLE5=Salty Dog
TTITLE6=Weary Blues
TTITLE7=Jackass Blues
TTITLE8=Milenberg Joys
TTITLE9=Lord Let Me In The Lifeboot
TTITLE10=Days Beyond Recall
TTITLE11=Porto Rico
TTITLE12=Up In The Sidney's Flat
TTITLE13=Quincy Street Stomp Blame it on the Blues)
TTITLE14=Old Stack O'Lee Blues
TTITLE15=Bechet's Fantasy
TTITLE16=Weary Way Blues
TTITLE17=Old Fashioned Love
EXTD=
EXTT0=
EXTT1=
EXTT2=
EXTT3=
EXTT4=
EXTT5=
EXTT6=
EXTT7=
EXTT8=
EXTT9=
EXTT10=
EXTT11=
EXTT12=
EXTT13=
EXTT14=
EXTT15=
EXTT16=
EXTT17=
PLAYORDER=
